<svg width="138" height="30" viewBox="0 0 138 30" fill="none" xmlns="http://www.w3.org/2000/svg">
<path d="M19 12L20.25 9.25L23 8L20.25 6.75L19 4L17.75 6.75L15 8L17.75 9.25L19 12Z" fill="#4F4F4F"/>
<path d="M19 18L17.75 20.75L15 22L17.75 23.25L19 26L20.25 23.25L23 22L20.25 20.75L19 18Z" fill="#4F4F4F"/>
<path d="M11.5 12.5L9 7L6.5 12.5L1 15L6.5 17.5L9 23L11.5 17.5L17 15L11.5 12.5ZM9.99 15.99L9 18.17L8.01 15.99L5.83 15L8.01 14.01L9 11.83L9.99 14.01L12.17 15L9.99 15.99Z" fill="#4F4F4F"/>
<path d="M38.144 21.92C37.072 21.92 36.072 21.784 35.144 21.512C34.232 21.24 33.488 20.824 32.912 20.264C32.352 19.704 32.072 19 32.072 18.152C32.072 17.496 32.28 16.84 32.696 16.184C34.168 13.848 36.68 12.112 40.232 10.976C39.704 10.368 39.44 9.68 39.44 8.912C39.44 8.288 39.608 7.752 39.944 7.304C40.6 6.408 41.592 5.664 42.92 5.072C43.672 4.752 44.432 4.504 45.2 4.328C45.984 4.152 46.776 4.064 47.576 4.064C48.568 4.064 49.32 4.224 49.832 4.544C50.36 4.864 50.624 5.312 50.624 5.888C50.624 6.288 50.512 6.656 50.288 6.992C50.08 7.312 49.816 7.576 49.496 7.784C49.176 7.976 48.848 8.072 48.512 8.072C48.016 8.072 47.768 7.952 47.768 7.712C47.768 7.568 47.872 7.496 48.08 7.496C48.144 7.496 48.224 7.512 48.32 7.544C48.432 7.56 48.512 7.568 48.56 7.568C48.896 7.568 49.192 7.392 49.448 7.04C49.704 6.688 49.832 6.336 49.832 5.984C49.832 5.472 49.584 5.104 49.088 4.88C48.608 4.656 48.064 4.544 47.456 4.544C45.936 4.544 44.448 5.032 42.992 6.008C41.456 7.016 40.688 8.152 40.688 9.416C40.688 9.88 40.848 10.312 41.168 10.712C41.728 10.536 42.248 10.416 42.728 10.352C43.224 10.272 43.696 10.232 44.144 10.232C45.68 10.232 46.448 10.528 46.448 11.12C46.448 11.392 46.336 11.632 46.112 11.84C45.888 12.032 45.6 12.184 45.248 12.296C44.912 12.392 44.568 12.44 44.216 12.44C43.848 12.44 43.44 12.392 42.992 12.296C42.544 12.2 42.112 12.072 41.696 11.912C41.28 11.752 40.928 11.568 40.64 11.36C39.136 11.792 37.8 12.464 36.632 13.376C35.48 14.272 34.624 15.28 34.064 16.4C33.76 17.008 33.608 17.6 33.608 18.176C33.608 18.88 33.808 19.456 34.208 19.904C34.608 20.352 35.136 20.68 35.792 20.888C36.464 21.096 37.2 21.2 38 21.2C39.328 21.2 40.648 20.984 41.96 20.552C43.272 20.136 44.392 19.512 45.32 18.68C46.584 17.56 47.216 16.384 47.216 15.152C47.216 14.176 46.744 13.688 45.8 13.688C45.304 13.688 44.752 13.816 44.144 14.072C43.536 14.312 42.96 14.64 42.416 15.056C41.888 15.472 41.448 15.928 41.096 16.424C40.744 16.92 40.568 17.424 40.568 17.936C40.568 18.448 40.792 18.76 41.24 18.872C41.4 18.936 41.48 19.016 41.48 19.112C41.48 19.24 41.36 19.304 41.12 19.304C40.272 19.304 39.848 18.832 39.848 17.888C39.848 17.264 40.032 16.672 40.4 16.112C40.768 15.552 41.24 15.056 41.816 14.624C42.408 14.192 43.048 13.856 43.736 13.616C44.424 13.36 45.088 13.232 45.728 13.232C46.48 13.232 47.064 13.4 47.48 13.736C47.896 14.056 48.104 14.584 48.104 15.32C48.104 16.808 47.28 18.208 45.632 19.52C44.592 20.368 43.44 20.976 42.176 21.344C40.912 21.728 39.568 21.92 38.144 21.92ZM44 11.912C44.864 11.912 45.296 11.664 45.296 11.168C45.296 10.944 44.864 10.832 44 10.832C43.616 10.832 43.216 10.856 42.8 10.904C42.4 10.952 41.992 11.016 41.576 11.096C42.264 11.64 43.072 11.912 44 11.912ZM50.2018 20.12C49.7218 20.12 49.3138 19.992 48.9778 19.736C48.6418 19.464 48.4497 19.136 48.4017 18.752C48.3377 18.24 48.4097 17.728 48.6178 17.216C48.8418 16.688 49.1378 16.184 49.5058 15.704C49.8898 15.224 50.2978 14.776 50.7298 14.36C52.4258 12.664 53.9538 11.816 55.3138 11.816C55.7778 11.816 56.0898 11.936 56.2498 12.176C56.3138 12.256 56.3858 12.44 56.4658 12.728C58.2578 9.816 59.5058 8.36 60.2098 8.36C60.3698 8.36 60.5378 8.4 60.7137 8.48C60.8898 8.56 60.9778 8.664 60.9778 8.792C60.9778 8.872 60.9378 8.976 60.8578 9.104C60.3778 9.696 59.8978 10.288 59.4178 10.88C58.9378 11.456 58.4658 12.04 58.0018 12.632C57.2178 13.624 56.5858 14.488 56.1058 15.224C55.6258 15.96 55.2818 16.584 55.0738 17.096C55.0098 17.256 54.9458 17.456 54.8818 17.696C54.8338 17.92 54.8098 18.152 54.8098 18.392C54.8098 18.696 54.8738 18.96 55.0018 19.184C55.1298 19.408 55.3618 19.52 55.6978 19.52C56.2258 19.52 56.8738 19.264 57.6418 18.752C58.4098 18.24 59.3058 17.4 60.3298 16.232C60.3938 16.168 60.4498 16.112 60.4978 16.064C60.5618 16.016 60.6258 15.984 60.6898 15.968C60.8338 15.936 60.9058 15.968 60.9058 16.064C60.9058 16.112 60.8578 16.2 60.7618 16.328C60.2658 16.92 59.7138 17.504 59.1058 18.08C58.4978 18.656 57.8738 19.136 57.2338 19.52C56.6098 19.888 56.0258 20.072 55.4818 20.072C54.9378 20.072 54.5538 19.888 54.3298 19.52C54.1058 19.152 53.9938 18.736 53.9938 18.272C53.9938 17.792 54.0818 17.352 54.2578 16.952L52.3138 18.896C51.8818 19.328 51.4818 19.64 51.1138 19.832C50.7618 20.024 50.4578 20.12 50.2018 20.12ZM49.9858 19.592C50.6738 19.592 51.8178 18.648 53.4178 16.76C53.4978 16.664 53.7778 16.312 54.2578 15.704C54.7378 15.08 55.4178 14.176 56.2978 12.992C56.1858 12.8 55.9938 12.704 55.7218 12.704C54.7298 12.704 53.4018 13.488 51.7378 15.056C50.1698 16.512 49.3857 17.736 49.3857 18.728C49.3857 19.304 49.5858 19.592 49.9858 19.592ZM62.5569 20.048C61.8049 20.048 61.2449 19.8 60.8769 19.304C60.5249 18.808 60.2369 18.12 60.0129 17.24C59.7249 17.528 59.5249 17.672 59.4129 17.672C59.3329 17.672 59.2929 17.608 59.2929 17.48C59.2929 17.384 59.3329 17.296 59.4129 17.216C59.4129 17.216 59.6129 16.968 60.0129 16.472C60.4289 15.976 61.1249 15.28 62.1009 14.384L65.1249 11.552C65.5409 11.152 65.8689 10.848 66.1089 10.64C66.3649 10.432 66.5489 10.328 66.6609 10.328C67.1729 10.328 67.4289 10.52 67.4289 10.904C67.4289 11.096 67.3249 11.32 67.1169 11.576C66.9569 11.768 66.8369 11.92 66.7569 12.032C66.6929 12.128 66.6529 12.184 66.6369 12.2C66.3489 12.696 66.0849 13.584 65.8449 14.864C65.6689 15.808 65.5169 16.584 65.3889 17.192C65.2609 17.8 65.1569 18.24 65.0769 18.512C65.7489 18.496 66.4129 18.288 67.0689 17.888C67.7249 17.488 68.4289 16.832 69.1809 15.92C69.2129 15.888 69.2609 15.84 69.3249 15.776C69.3889 15.712 69.4529 15.68 69.5169 15.68C69.6129 15.68 69.6609 15.72 69.6609 15.8C69.6609 15.88 69.6369 15.96 69.5889 16.04C69.5409 16.12 69.4929 16.192 69.4449 16.256C68.9489 16.848 68.4849 17.336 68.0529 17.72C67.6209 18.088 67.1649 18.384 66.6849 18.608C66.2049 18.816 65.6369 18.992 64.9809 19.136L64.2129 19.64C64.0049 19.784 63.7569 19.888 63.4689 19.952C63.1809 20.016 62.8769 20.048 62.5569 20.048ZM62.8449 18.824C63.2129 18.824 63.5169 18.736 63.7569 18.56C63.9329 18.464 64.1009 18.2 64.2609 17.768C64.4369 17.32 64.6049 16.768 64.7649 16.112C64.8929 15.552 64.9889 15.008 65.0529 14.48C65.1329 13.936 65.2049 13.416 65.2689 12.92L65.3649 12.104C64.9969 12.376 64.5329 12.768 63.9729 13.28C63.4129 13.792 62.8609 14.328 62.3169 14.888C61.7729 15.448 61.4209 15.864 61.2609 16.136C61.1009 16.392 61.0129 16.584 60.9969 16.712C60.9329 17.352 61.0849 17.864 61.4529 18.248C61.8369 18.632 62.3009 18.824 62.8449 18.824ZM69.4539 20.048C69.0539 20.048 68.7419 19.864 68.5179 19.496C68.2939 19.112 68.1819 18.744 68.1819 18.392C68.1819 17.432 68.8779 16.088 70.2699 14.36C71.6779 12.616 72.8139 11.744 73.6779 11.744C74.4939 11.744 74.9019 12.176 74.9019 13.04C74.9019 13.168 74.8859 13.304 74.8539 13.448C74.8379 13.592 74.8139 13.744 74.7819 13.904C74.8139 13.952 74.8939 13.976 75.0219 13.976C75.4539 13.976 75.9659 13.824 76.5579 13.52C76.5419 13.792 75.9099 14.184 74.6619 14.696C74.8379 15.224 74.3099 16.232 73.0779 17.72C71.8139 19.272 70.7339 20.048 69.8379 20.048H69.4539ZM69.8859 19.328C70.5739 19.328 71.4539 18.696 72.5259 17.432C73.5659 16.2 74.0859 15.312 74.0859 14.768C73.8299 14.624 73.5099 14.256 73.1259 13.664C72.5819 13.664 71.7979 14.32 70.7739 15.632C69.7659 16.912 69.2779 17.896 69.3099 18.584C69.3259 19.08 69.5179 19.328 69.8859 19.328ZM81.2919 20.048C80.8599 20.048 80.5559 19.928 80.3799 19.688C80.2039 19.432 80.1159 19.12 80.1159 18.752C80.1159 17.824 80.4359 16.832 81.0759 15.776L82.6119 13.28C81.5239 14.08 80.4439 15.08 79.3719 16.28C79.0839 16.6 78.7559 16.976 78.3879 17.408C78.0359 17.84 77.6439 18.336 77.2119 18.896C76.6359 19.648 76.2919 20.024 76.1799 20.024C75.9559 20.024 75.7719 19.928 75.6279 19.736C75.4839 19.528 75.4119 19.344 75.4119 19.184C75.4119 19.056 75.4519 18.824 75.5319 18.488C75.6119 18.136 75.7079 17.832 75.8199 17.576C75.9319 17.304 76.0439 17.04 76.1559 16.784C76.2839 16.512 76.4039 16.248 76.5159 15.992L75.0759 17.504C75.0439 17.536 74.9479 17.632 74.7879 17.792C74.6279 17.952 74.4999 18.032 74.4039 18.032C74.3239 18.032 74.2839 17.976 74.2839 17.864C74.2839 17.832 74.2999 17.792 74.3319 17.744C74.3479 17.68 74.3959 17.608 74.4759 17.528C74.7159 17.288 74.9639 17.032 75.2199 16.76C75.4759 16.488 75.7399 16.176 76.0119 15.824C76.1559 15.648 76.3719 15.384 76.6599 15.032C76.9479 14.664 77.2599 14.272 77.5959 13.856C77.9479 13.44 78.2759 13.056 78.5799 12.704C78.6599 12.592 78.7479 12.52 78.8439 12.488C78.9399 12.44 79.0039 12.416 79.0359 12.416C79.4679 12.416 79.6839 12.584 79.6839 12.92C79.6839 13.016 79.6599 13.112 79.6119 13.208C78.1719 15.192 77.3079 16.704 77.0199 17.744C78.8759 15.888 80.3639 14.496 81.4839 13.568C82.6199 12.624 83.4279 12.152 83.9079 12.152C84.1639 12.152 84.3559 12.192 84.4839 12.272C84.6279 12.352 84.6999 12.504 84.6999 12.728C84.6999 12.808 84.6919 12.872 84.6759 12.92C84.6279 13.032 84.2999 13.48 83.6919 14.264C83.3239 14.712 82.9959 15.12 82.7079 15.488C82.4359 15.856 82.2119 16.176 82.0359 16.448C81.7479 16.896 81.5319 17.32 81.3879 17.72C81.2439 18.104 81.1719 18.432 81.1719 18.704C81.1719 18.816 81.1879 18.952 81.2199 19.112C81.2519 19.272 81.3479 19.352 81.5079 19.352C81.8759 19.352 82.4519 19.032 83.2359 18.392C83.6039 18.072 83.9479 17.752 84.2679 17.432C84.5879 17.096 84.8919 16.768 85.1799 16.448C85.2439 16.384 85.3479 16.264 85.4919 16.088C85.6359 15.896 85.7239 15.8 85.7559 15.8C85.8199 15.8 85.8519 15.864 85.8519 15.992C85.8519 16.056 85.8119 16.168 85.7319 16.328C85.6679 16.472 85.5959 16.584 85.5159 16.664C85.3399 16.872 85.0759 17.16 84.7239 17.528C84.3879 17.896 84.0039 18.272 83.5719 18.656C83.1559 19.04 82.7479 19.368 82.3479 19.64C81.9479 19.912 81.5959 20.048 81.2919 20.048ZM102.689 22.616C101.793 22.616 100.873 22.48 99.9294 22.208C98.9854 21.952 98.0894 21.568 97.2414 21.056C96.4094 20.544 95.6894 19.936 95.0814 19.232C93.8014 20.512 92.5854 21.152 91.4334 21.152C90.8414 21.152 90.4014 20.976 90.1134 20.624C89.8254 20.288 89.6814 19.848 89.6814 19.304C89.6814 18.296 90.0654 17.112 90.8334 15.752C91.5534 14.472 92.1294 13.8 92.5614 13.736C92.8814 13.736 93.2094 14.064 93.5454 14.72L95.0574 17.648C95.9054 16.512 96.7934 15.288 97.7214 13.976C96.4094 13.384 95.7534 12.528 95.7534 11.408C95.7534 10.928 95.8654 10.488 96.0894 10.088C96.3294 9.672 96.6334 9.336 97.0014 9.08C97.3694 8.824 97.7454 8.696 98.1294 8.696C98.6574 8.696 99.0414 8.944 99.2814 9.44C99.3134 9.488 99.3134 9.536 99.2814 9.584C99.2654 9.632 99.2414 9.648 99.2094 9.632C99.0974 9.504 98.9374 9.392 98.7294 9.296C98.5214 9.2 98.3294 9.152 98.1534 9.152C97.8174 9.152 97.5054 9.288 97.2174 9.56C96.9454 9.816 96.7294 10.12 96.5694 10.472C96.4254 10.824 96.3694 11.136 96.4014 11.408C96.4014 12.224 96.9774 12.936 98.1294 13.544C98.4014 13.144 98.6974 12.712 99.0174 12.248C99.3374 11.768 99.6814 11.256 100.049 10.712C103.233 6.04 105.881 3.704 107.993 3.704C109.481 3.704 110.225 4.4 110.225 5.792C110.225 7.056 109.609 8.544 108.377 10.256C107.769 11.104 107.001 11.864 106.073 12.536C105.145 13.208 104.161 13.744 103.121 14.144C102.097 14.528 101.105 14.72 100.145 14.72C99.9214 14.72 99.6974 14.712 99.4734 14.696C99.2654 14.664 99.0734 14.616 98.8974 14.552C98.4814 15.096 98.0014 15.704 97.4574 16.376C96.9134 17.048 96.3134 17.792 95.6574 18.608C95.9454 19.008 96.3534 19.408 96.8814 19.808C97.4254 20.208 98.0334 20.56 98.7054 20.864C99.3774 21.184 100.041 21.44 100.697 21.632C101.353 21.824 101.945 21.92 102.473 21.92C103.081 21.92 103.641 21.848 104.153 21.704C104.665 21.576 105.081 21.36 105.401 21.056C105.721 20.768 105.881 20.384 105.881 19.904C105.881 19.84 105.881 19.776 105.881 19.712C105.881 19.648 105.873 19.584 105.857 19.52C105.857 19.488 105.849 19.464 105.833 19.448C105.833 19.432 105.833 19.416 105.833 19.4C105.833 19.24 105.881 19.16 105.977 19.16C106.137 19.16 106.265 19.288 106.361 19.544C106.457 19.784 106.505 19.976 106.505 20.12C106.505 20.616 106.313 21.048 105.929 21.416C105.545 21.8 105.057 22.096 104.465 22.304C103.889 22.512 103.297 22.616 102.689 22.616ZM99.9774 14.096C100.793 14.096 101.665 13.912 102.593 13.544C103.521 13.16 104.393 12.664 105.209 12.056C106.041 11.432 106.713 10.76 107.225 10.04C108.681 8.008 109.409 6.464 109.409 5.408C109.409 4.96 109.281 4.632 109.025 4.424C108.769 4.216 108.457 4.112 108.089 4.112C107.289 4.112 106.297 4.784 105.113 6.128C104.745 6.56 104.257 7.184 103.649 8C103.057 8.8 102.353 9.792 101.537 10.976C101.217 11.44 100.865 11.928 100.481 12.44C100.097 12.952 99.6974 13.48 99.2814 14.024C99.5054 14.072 99.7374 14.096 99.9774 14.096ZM91.4814 20.504C91.7854 20.504 92.1214 20.392 92.4894 20.168C92.8734 19.96 93.2414 19.696 93.5934 19.376C93.9454 19.056 94.2334 18.744 94.4574 18.44C94.2334 18.12 93.9934 17.736 93.7374 17.288C93.4814 16.84 93.2014 16.32 92.8974 15.728C92.5294 14.96 92.2494 14.616 92.0574 14.696C91.7694 14.744 91.4574 15.256 91.1214 16.232C90.7854 17.208 90.6174 18.12 90.6174 18.968C90.6174 19.992 90.9054 20.504 91.4814 20.504ZM110.71 11.744C110.438 11.744 110.198 11.656 109.99 11.48C109.798 11.304 109.702 11.104 109.702 10.88C109.702 10.432 110.006 10.208 110.614 10.208C110.838 10.208 111.062 10.288 111.286 10.448C111.51 10.592 111.622 10.776 111.622 11C111.622 11.192 111.518 11.368 111.31 11.528C111.102 11.672 110.902 11.744 110.71 11.744ZM106.27 20.264C105.918 20.264 105.63 20.152 105.406 19.928C105.166 19.688 105.046 19.272 105.046 18.68C105.046 18.344 105.126 17.96 105.286 17.528C105.43 17.08 105.614 16.632 105.838 16.184C106.078 15.736 106.31 15.336 106.534 14.984C107.43 13.528 108.166 12.792 108.742 12.776C108.886 12.776 109.062 12.84 109.27 12.968C109.478 13.08 109.582 13.208 109.582 13.352C109.582 13.352 108.974 14.136 107.758 15.704C106.558 17.256 105.958 18.36 105.958 19.016C105.958 19.528 106.158 19.784 106.558 19.784C106.814 19.784 107.142 19.68 107.542 19.472C107.958 19.248 108.39 18.968 108.838 18.632C109.286 18.296 109.71 17.936 110.11 17.552C110.526 17.168 110.862 16.816 111.118 16.496C111.278 16.288 111.414 16.144 111.526 16.064C111.654 15.984 111.734 15.944 111.766 15.944C111.83 15.944 111.862 15.992 111.862 16.088C111.862 16.168 111.766 16.328 111.574 16.568C111.398 16.808 111.15 17.088 110.83 17.408C110.446 17.792 110.022 18.208 109.558 18.656C109.094 19.104 108.59 19.488 108.046 19.808C107.502 20.112 106.91 20.264 106.27 20.264ZM116.484 20.048C116.1 20.048 115.908 19.832 115.908 19.4C116.084 18.504 116.444 17.496 116.988 16.376C117.244 15.832 117.5 15.296 117.756 14.768C118.028 14.24 118.292 13.704 118.548 13.16C117.956 13.56 117.364 14.008 116.772 14.504C116.18 14.984 115.604 15.528 115.044 16.136C114.388 16.84 113.628 17.744 112.764 18.848C112.14 19.632 111.78 20.024 111.684 20.024C111.46 20.024 111.276 19.92 111.132 19.712C110.988 19.504 110.916 19.328 110.916 19.184C110.916 18.976 111.1 18.44 111.468 17.576C111.58 17.304 111.692 17.04 111.804 16.784C111.932 16.512 112.052 16.248 112.164 15.992L110.724 17.504C110.692 17.536 110.596 17.632 110.436 17.792C110.276 17.952 110.148 18.032 110.052 18.032C109.972 18.032 109.932 17.976 109.932 17.864C109.932 17.832 109.948 17.792 109.98 17.744C109.996 17.68 110.044 17.608 110.124 17.528C110.364 17.288 110.612 17.032 110.868 16.76C111.124 16.488 111.388 16.176 111.66 15.824C111.868 15.552 112.164 15.152 112.548 14.624C112.948 14.08 113.436 13.4 114.012 12.584C114.188 12.344 114.436 12.224 114.756 12.224C115.076 12.224 115.236 12.376 115.236 12.68C115.236 12.792 114.828 13.536 114.012 14.912C113.596 15.648 113.26 16.248 113.004 16.712C112.764 17.176 112.612 17.52 112.548 17.744C112.9 17.36 113.316 16.928 113.796 16.448C114.292 15.968 114.86 15.432 115.5 14.84C117.468 13.016 118.764 12.104 119.388 12.104C119.564 12.104 119.732 12.16 119.892 12.272C120.068 12.384 120.156 12.528 120.156 12.704C120.156 12.784 119.844 13.368 119.22 14.456C118.612 15.56 118.276 16.216 118.212 16.424C119.988 14.936 120.876 14.184 120.876 14.168C122.38 13 123.46 12.416 124.116 12.416C124.308 12.416 124.484 12.48 124.644 12.608C124.82 12.72 124.908 12.856 124.908 13.016C124.908 13.048 124.396 13.72 123.372 15.032C122.316 16.36 121.724 17.448 121.596 18.296C121.532 18.872 121.828 19.16 122.484 19.16C122.884 19.16 123.444 18.904 124.164 18.392C124.884 17.88 125.636 17.176 126.42 16.28C126.516 16.168 126.62 16.064 126.732 15.968C126.844 15.856 126.94 15.8 127.02 15.8C127.116 15.8 127.164 15.84 127.164 15.92C127.164 16.032 127.092 16.16 126.948 16.304C126.532 16.8 126.036 17.312 125.46 17.84C124.9 18.368 124.34 18.816 123.78 19.184C123.22 19.536 122.724 19.712 122.292 19.712C121.204 19.712 120.66 19.208 120.66 18.2C120.66 17.848 120.756 17.44 120.948 16.976C121.14 16.496 121.332 16.064 121.524 15.68C121.988 14.784 122.492 13.992 123.036 13.304C122.524 13.56 121.988 13.896 121.428 14.312C120.884 14.728 120.316 15.216 119.724 15.776C118.348 17.12 117.404 18.48 116.892 19.856C116.812 19.984 116.676 20.048 116.484 20.048ZM127.569 20.12C127.185 20.12 126.801 19.984 126.417 19.712C126.033 19.44 125.817 19.12 125.769 18.752C125.609 17.52 126.385 16.056 128.097 14.36C129.793 12.664 131.321 11.816 132.681 11.816C133.049 11.816 133.337 11.904 133.545 12.08C133.657 12.192 133.737 12.344 133.785 12.536C133.849 12.728 133.897 12.824 133.929 12.824C133.993 12.824 134.049 12.816 134.097 12.8C134.145 12.768 134.201 12.752 134.265 12.752C134.457 12.752 134.625 12.824 134.769 12.968C134.913 13.112 134.993 13.24 135.009 13.352C135.025 13.384 134.513 14.176 133.473 15.728C132.433 17.248 131.961 18.28 132.057 18.824C132.137 19.192 132.313 19.376 132.585 19.376C133.417 19.376 134.937 18 137.145 15.248C137.193 15.184 137.241 15.152 137.289 15.152C137.369 15.152 137.409 15.208 137.409 15.32C137.409 15.448 137.337 15.608 137.193 15.8C135.161 18.536 133.601 19.904 132.513 19.904C132.369 19.904 132.233 19.88 132.105 19.832C131.401 19.56 131.049 19.032 131.049 18.248C131.049 17.976 131.081 17.704 131.145 17.432L129.657 18.872C129.209 19.32 128.801 19.64 128.433 19.832C128.081 20.024 127.793 20.12 127.569 20.12ZM127.353 19.592C128.281 19.592 129.545 18.576 131.145 16.544L133.689 13.04C133.561 12.816 133.353 12.704 133.065 12.704C132.089 12.704 130.769 13.488 129.105 15.056C127.377 16.656 126.601 17.976 126.777 19.016C126.857 19.4 127.049 19.592 127.353 19.592Z" fill="#4F4F4F"/>
</svg>
